<svg width="24" height="24" viewBox="0 0 24 24" fill="none" xmlns="http://www.w3.org/2000/svg">
    <g>
        <path d="M9.5 17.0001C9.04167 17.0001 8.64931 16.8369 8.32292 16.5105C7.99653 16.1841 7.83333 15.7917 7.83333 15.3334V5.33341C7.83333 4.87508 7.99653 4.48272 8.32292 4.15633C8.64931 3.82994 9.04167 3.66675 9.5 3.66675H17C17.4583 3.66675 17.8507 3.82994 18.1771 4.15633C18.5035 4.48272 18.6667 4.87508 18.6667 5.33341V15.3334C18.6667 15.7917 18.5035 16.1841 18.1771 16.5105C17.8507 16.8369 17.4583 17.0001 17 17.0001H9.5ZM9.5 15.3334H17V5.33341H9.5V15.3334ZM6.16667 20.3334C5.70833 20.3334 5.31597 20.1702 4.98958 19.8438C4.66319 19.5174 4.5 19.1251 4.5 18.6667V7.00008H6.16667V18.6667H15.3333V20.3334H6.16667Z" fill="currentColor"/>
    </g>
</svg>
