<svg width="24" height="24" viewBox="0 0 24 24" fill="none" xmlns="http://www.w3.org/2000/svg">
    <path d="M12.0083 19.2451C11.5601 19.2451 11.2695 18.9629 11.2695 18.4897V17.6514C9.50977 17.4438 8.28955 16.5391 7.93262 15.3853C7.87451 15.2275 7.84961 15.0698 7.84961 14.9287C7.84961 14.4058 8.20654 14.0571 8.7793 14.0571C9.26074 14.0571 9.53467 14.3394 9.70898 14.7295C10.041 15.5762 10.8213 16.041 12.083 16.041C13.4194 16.041 14.2744 15.5098 14.2744 14.522C14.2744 13.6836 13.5107 13.252 12.2407 12.9531L11.1118 12.6875C9.21924 12.2559 7.96582 11.1768 7.96582 9.60791C7.96582 7.73193 9.41016 6.60303 11.2695 6.37061V5.52393C11.2695 5.05078 11.5601 4.76855 12.0083 4.76855C12.4565 4.76855 12.7471 5.05078 12.7471 5.52393V6.37061C14.374 6.56982 15.5527 7.44971 15.918 8.66992C15.9595 8.82764 15.9927 8.97705 15.9927 9.13477C15.9927 9.61621 15.6274 9.90674 15.0962 9.90674C14.6147 9.90674 14.3574 9.67432 14.1499 9.27588C13.7764 8.4043 13.1289 7.98096 12.0166 7.98096C10.7466 7.98096 9.98291 8.54541 9.98291 9.43359C9.98291 10.1973 10.73 10.6704 11.834 10.9194L12.9131 11.1685C15.0464 11.6582 16.2583 12.6958 16.2583 14.3228C16.2583 16.3647 14.6313 17.4604 12.7471 17.668V18.4897C12.7471 18.9629 12.4565 19.2451 12.0083 19.2451Z" fill="currentColor"/>
    <rect x="3" y="3" width="18" height="18" rx="4" stroke="currentColor" stroke-width="2"/>
</svg>
