<svg width="24" height="24" viewBox="0 0 24 24" fill="none" xmlns="http://www.w3.org/2000/svg">
    <path fill-rule="evenodd" clip-rule="evenodd" d="M9.55401 5.88566C8.91965 6.20848 8.35366 6.62836 7.85221 7.14772C7.21175 7.81106 6.71301 8.57423 6.35406 9.44399C5.99862 10.3052 5.82031 11.2093 5.82031 12.1641C5.82031 13.1852 5.99929 14.1019 6.34436 14.9265C6.69552 15.7656 7.18127 16.4867 7.80218 17.099C8.42844 17.7114 9.16142 18.1862 10.0103 18.524C10.8508 18.8584 11.7787 19.0312 12.8047 19.0312C13.5218 19.0312 14.2043 18.9303 14.8562 18.7311L14.8623 18.7293L14.8623 18.7293C15.5223 18.5322 16.1263 18.2523 16.6782 17.8903C17.2357 17.5247 17.7204 17.0984 18.1358 16.611C18.4358 16.2553 18.6879 15.8782 18.8936 15.4789C18.6709 15.5407 18.4319 15.5938 18.1799 15.6399C17.691 15.7294 17.1905 15.7734 16.6797 15.7734C15.5873 15.7734 14.5707 15.6132 13.6426 15.2757L13.6407 15.275C12.7213 14.9385 11.916 14.4443 11.2403 13.7872L11.2337 13.7807L11.2337 13.7807C10.5654 13.1186 10.0578 12.3281 9.70792 11.4231L9.70712 11.4211C9.35435 10.5026 9.1875 9.49292 9.1875 8.40625C9.1875 8.05387 9.21138 7.692 9.25772 7.32128C9.30365 6.95385 9.36745 6.60094 9.45025 6.26347C9.45041 6.2628 9.45058 6.26214 9.45074 6.26148L10.4219 6.5L9.44979 6.26536C9.44995 6.26473 9.4501 6.2641 9.45025 6.26347C9.4815 6.13417 9.51592 6.00795 9.55401 5.88566ZM9.8117 3.65223C9.954 3.62377 10.1123 3.60156 10.2734 3.60156C10.6781 3.60156 11.1173 3.73822 11.4441 4.11056C11.7027 4.40017 11.8438 4.763 11.8438 5.15625C11.8438 5.34203 11.8133 5.51841 11.7718 5.67637L11.7683 5.68954L11.7682 5.68952C11.7221 5.85568 11.6559 6.01876 11.5818 6.17364L11.5787 6.18017L11.5787 6.18016C11.5206 6.29928 11.4558 6.47862 11.394 6.73464L11.393 6.73852C11.3302 6.9942 11.2796 7.27083 11.2423 7.56935C11.2053 7.86529 11.1875 8.14404 11.1875 8.40625C11.1875 9.28787 11.3226 10.0487 11.5737 10.7029C11.8274 11.3585 12.1832 11.9051 12.638 12.3567C13.0969 12.802 13.6548 13.1503 14.327 13.3965C15.0029 13.6421 15.7829 13.7734 16.6797 13.7734C17.0751 13.7734 17.4549 13.7394 17.8201 13.6726C18.1955 13.6039 18.4668 13.5284 18.6522 13.4558C18.9516 13.3191 19.2948 13.2109 19.6562 13.2109C20.0632 13.2109 20.4421 13.3658 20.7309 13.6602C21.0522 13.976 21.1797 14.3801 21.1797 14.7656C21.1797 14.9231 21.1583 15.0826 21.1323 15.2258L21.1308 15.234L21.1308 15.234C21.0932 15.4313 21.0285 15.6194 20.9491 15.7958C20.6333 16.5593 20.2032 17.2623 19.6626 17.9028L19.6597 17.9063C19.1171 18.5432 18.4876 19.0955 17.7749 19.5628C17.057 20.0336 16.2766 20.3939 15.4378 20.6447C14.5906 20.9033 13.7116 21.0312 12.8047 21.0312C11.5494 21.0312 10.3679 20.8187 9.27096 20.3823C8.1829 19.9494 7.22359 19.3309 6.40221 18.5273L6.39964 18.5247C5.58367 17.7206 4.95006 16.7755 4.49939 15.6985C4.04238 14.6064 3.82031 13.4242 3.82031 12.1641C3.82031 10.9522 4.04825 9.7885 4.50531 8.68101C4.95887 7.58202 5.59554 6.60561 6.41341 5.75853C7.2396 4.90283 8.20802 4.24842 9.31099 3.80015L9.32825 3.79314L9.34576 3.78677C9.49594 3.73216 9.64852 3.68653 9.8018 3.65426L9.81169 3.65218L9.8117 3.65223Z" fill="currentColor"/>
</svg>
