<svg width="24" height="24" viewBox="0 0 24 24" fill="none" xmlns="http://www.w3.org/2000/svg">
    <path fill-rule="evenodd" clip-rule="evenodd" d="M12 1C12.5523 1 13 1.44772 13 2V4C13 4.55228 12.5523 5 12 5C11.4477 5 11 4.55228 11 4V2C11 1.44772 11.4477 1 12 1ZM12 9C10.3431 9 9 10.3431 9 12C9 13.6569 10.3431 15 12 15C13.6569 15 15 13.6569 15 12C15 10.3431 13.6569 9 12 9ZM7 12C7 9.23858 9.23858 7 12 7C14.7614 7 17 9.23858 17 12C17 14.7614 14.7614 17 12 17C9.23858 17 7 14.7614 7 12ZM19.7135 5.70071C20.104 5.31019 20.104 4.67703 19.7135 4.2865C19.323 3.89598 18.6898 3.89598 18.2993 4.2865L17.0136 5.57215C16.6231 5.96267 16.6231 6.59584 17.0136 6.98636C17.4042 7.37689 18.0373 7.37689 18.4278 6.98636L19.7135 5.70071ZM4.2865 4.2865C4.67703 3.89598 5.31019 3.89598 5.70071 4.2865L6.98636 5.57215C7.37689 5.96267 7.37689 6.59584 6.98636 6.98636C6.59584 7.37689 5.96267 7.37689 5.57215 6.98636L4.2865 5.70071C3.89598 5.31019 3.89598 4.67703 4.2865 4.2865ZM18.428 17.0138C18.0375 16.6232 17.4043 16.6232 17.0138 17.0138C16.6232 17.4043 16.6232 18.0375 17.0138 18.428L18.2994 19.7136C18.6899 20.1042 19.3231 20.1042 19.7136 19.7136C20.1042 19.3231 20.1042 18.6899 19.7136 18.2994L18.428 17.0138ZM6.98623 17.0138C7.37675 17.4043 7.37675 18.0375 6.98623 18.428L5.70058 19.7136C5.31005 20.1042 4.67689 20.1042 4.28636 19.7136C3.89584 19.3231 3.89584 18.6899 4.28636 18.2994L5.57201 17.0138C5.96254 16.6232 6.5957 16.6232 6.98623 17.0138ZM22 13C22.5523 13 23 12.5523 23 12C23 11.4477 22.5523 11 22 11H20C19.4477 11 19 11.4477 19 12C19 12.5523 19.4477 13 20 13H22ZM5 12C5 12.5523 4.55228 13 4 13H2C1.44772 13 1 12.5523 1 12C1 11.4477 1.44772 11 2 11H4C4.55228 11 5 11.4477 5 12ZM13 20C13 19.4477 12.5523 19 12 19C11.4477 19 11 19.4477 11 20V22C11 22.5523 11.4477 23 12 23C12.5523 23 13 22.5523 13 22V20Z" fill="currentColor"/>
</svg>
